<svg width="187" height="35" viewBox="0 0 187 35" fill="none" xmlns="http://www.w3.org/2000/svg">
<path d="M29.3333 22.6667V17.3333C29.3333 9.96954 23.3638 4 16 4C8.63616 4 2.66663 9.96954 2.66663 17.3333V22.6667M9.99996 28C8.15901 28 6.66663 26.5076 6.66663 24.6667V20.6667C6.66663 18.8257 8.15901 17.3333 9.99996 17.3333C11.8409 17.3333 13.3333 18.8257 13.3333 20.6667V24.6667C13.3333 26.5076 11.8409 28 9.99996 28ZM22 28C20.159 28 18.6666 26.5076 18.6666 24.6667V20.6667C18.6666 18.8257 20.159 17.3333 22 17.3333C23.8409 17.3333 25.3333 18.8257 25.3333 20.6667V24.6667C25.3333 26.5076 23.8409 28 22 28Z" stroke="#0037FF" stroke-width="3" stroke-linecap="round" stroke-linejoin="round"/>
<path d="M40.544 26.328L40.864 26.104C41.632 25.624 42.24 24.824 42.4 24.056L46.4 6.744C46.592 5.976 46.272 5.82186 45.728 5.37386L33.7389 3.8H45.728H56.032C60.992 3.8 63.424 6.136 62.592 9.656C61.984 12.28 59.904 14.2 57.536 15.064C60.512 16.056 61.664 18.04 61.024 20.792C60.16 24.536 56.608 27 51.68 27H40.384L40.544 26.328ZM53.952 5.784H51.904L49.92 14.392H51.968C54.496 14.392 56.576 12.664 57.184 10.072C57.792 7.48 56.48 5.784 53.952 5.784ZM52.512 16.376H49.472L47.456 25.016H50.496C53.024 25.016 55.136 23.288 55.712 20.696C56.32 18.072 55.04 16.376 52.512 16.376Z" fill="#0037FF"/>
<path d="M71.744 10.072C75.328 10.072 79.072 11.32 77.92 16.312L76.064 24.312C75.872 25.144 76.064 25.464 76.704 25.464C76.704 25.464 77.184 25.464 77.536 25.016C77.376 25.816 75.872 27.32 73.472 27.32C71.744 27.32 70.688 26.52 70.72 24.888C69.312 26.488 67.392 27.32 65.472 27.32C62.528 27.32 60.704 25.4 61.344 22.52C62.72 16.632 71.936 17.272 72.768 14.616C72.64 12.504 71.104 11.8 69.984 11.8C69.536 11.8 69.184 11.896 68.992 12.024C69.44 12.472 69.664 13.176 69.472 13.976C69.152 15.32 67.776 16.44 66.368 16.44C64.96 16.44 64.096 15.32 64.448 13.848C64.96 11.64 67.712 10.072 71.744 10.072ZM71.552 20.888L72.448 16.984C70.592 18.136 67.552 18.68 66.912 21.432C66.56 23.032 67.296 24.024 68.32 24.024C69.472 24.024 70.912 22.776 71.552 20.888Z" fill="#0037FF"/>
<path d="M85.285 26.104L85.573 26.328L85.413 27H77.445L77.605 26.328L77.925 26.104C78.693 25.624 79.301 24.824 79.461 24.056L81.701 14.36C81.893 13.592 81.669 12.76 81.125 12.312L80.901 12.088L81.029 11.416L86.597 10.424H87.909L87.589 11.768C88.741 10.712 90.213 10.072 91.653 10.072C94.565 10.072 95.525 12.6 93.797 14.776C92.933 15.832 91.717 16.312 90.629 16.312C89.989 16.312 89.413 16.152 88.965 15.864C88.453 15.512 87.717 14.744 88.325 12.856C87.781 12.952 87.269 13.464 86.949 14.584L84.741 24.056C84.581 24.824 84.837 25.624 85.285 26.104Z" fill="#0037FF"/>
<path d="M93.5533 18.712C94.7373 13.528 99.0573 10.072 104.273 10.072C109.425 10.072 111.985 13.496 110.833 18.584C109.649 23.736 105.361 27.32 100.145 27.32C95.0573 27.32 92.3693 23.832 93.5533 18.712ZM98.8333 18.776C97.9373 22.744 98.6413 25.336 100.593 25.336C102.609 25.336 104.561 22.68 105.489 18.712C106.417 14.68 105.681 12.088 103.697 12.088C101.745 12.088 99.7613 14.744 98.8333 18.776Z" fill="#0037FF"/>
<path d="M118.531 25.336C121.059 25.336 123.651 23.832 124.067 21.976C125.123 17.496 112.387 16.6 114.019 9.592C114.851 5.944 118.979 3.448 124.259 3.448C129.123 3.448 131.971 5.528 131.235 8.664C130.787 10.616 129.123 11.992 127.171 11.992C125.187 11.992 124.163 10.552 124.611 8.504C124.835 7.64 125.347 6.552 126.371 5.848C126.019 5.816 125.731 5.432 124.419 5.432C121.859 5.432 119.715 6.744 119.331 8.408C118.307 12.824 131.299 12.536 129.507 20.376C128.547 24.568 124.195 27.32 118.883 27.32C114.915 27.32 109.955 25.816 110.819 21.976C111.331 19.832 113.411 18.136 115.427 18.136C117.635 18.136 118.819 20.152 118.339 22.264C118.051 23.48 117.347 24.248 116.291 24.952C116.611 25.112 117.571 25.336 118.531 25.336Z" fill="#0037FF"/>
<path d="M130.616 18.712C131.8 13.528 136.12 10.072 141.336 10.072C146.488 10.072 149.048 13.496 147.896 18.584C146.712 23.736 142.424 27.32 137.208 27.32C132.12 27.32 129.432 23.832 130.616 18.712ZM135.896 18.776C135 22.744 135.704 25.336 137.656 25.336C139.672 25.336 141.624 22.68 142.552 18.712C143.48 14.68 142.744 12.088 140.76 12.088C138.808 12.088 136.824 14.744 135.896 18.776Z" fill="#0037FF"/>
<path d="M159.149 23.64L160.845 16.344C161.389 14.008 160.813 12.6 159.213 12.6C157.709 12.6 156.301 13.976 155.597 16.088L153.741 24.056C153.581 24.824 153.837 25.624 154.285 26.104L154.573 26.328L154.413 27H146.445L146.605 26.328L146.925 26.104C147.693 25.624 148.301 24.824 148.461 24.056L150.701 14.36C150.893 13.592 150.669 12.76 150.125 12.312L149.901 12.088L150.029 11.416L155.597 10.424H156.909L156.301 12.952C157.869 11.16 160.045 10.072 162.317 10.072C165.741 10.072 167.053 12.472 166.221 16.024L164.301 24.312C164.109 25.144 164.301 25.464 164.941 25.464C164.941 25.464 165.421 25.464 165.805 25.016C165.645 25.816 164.109 27.32 161.709 27.32C159.597 27.32 158.573 26.168 159.149 23.64Z" fill="#0037FF"/>
<path d="M168 16.984C168.96 12.856 173.088 10.072 177.984 10.072C178.624 10.072 179.232 10.104 179.744 10.232C180 7.736 182.24 5.656 184.672 5.848C187.008 6.008 186.944 8.152 186.048 9.176C185.568 9.72 184.96 9.88 184.448 9.88C184 9.88 183.584 9.752 183.392 9.688C183.168 9.624 183.008 9.592 182.816 9.592C182.144 9.592 181.568 10.072 181.152 10.552C183.968 11.512 185.312 13.848 184.608 16.92C183.648 21.016 179.648 24.024 174.688 24.024C172.928 24.024 171.456 23.64 170.304 22.968C170.08 23.544 171.008 24.088 173.376 24.248C177.152 24.536 183.936 23.8 182.848 28.536C182.08 31.8 178.368 33.976 173.44 33.976C169.536 33.976 164.96 32.6 165.184 28.888C165.184 28.76 165.216 28.664 165.248 28.536C165.568 27.192 166.88 26.136 168.224 26.136C169.536 26.136 170.4 27.192 170.08 28.536C169.856 29.464 169.152 30.296 168.256 30.68C169.152 31.448 170.624 31.96 172.608 31.96C175.008 31.96 176.832 31.224 177.152 29.752C177.696 27.48 173.696 27.288 171.168 26.712C167.456 25.784 167.296 23.928 169.44 22.296C168.064 21.016 167.52 19.16 168 16.984ZM173.312 16.984C172.64 19.896 173.408 22.04 175.168 22.04C176.96 22.04 178.624 19.96 179.296 17.08C179.968 14.104 179.168 12.088 177.44 12.088C175.712 12.088 173.984 14.072 173.312 16.984Z" fill="#0037FF"/>
</svg>
