<svg width="37" height="37" viewBox="0 0 37 37" fill="none" xmlns="http://www.w3.org/2000/svg">
<rect width="37" height="37" rx="18.5" fill="#FFD900"/>
<path d="M18.4987 5C25.9559 5 32 10.1261 32 16.4512C32 22.7748 25.9559 27.9009 18.5 27.9009C17.7576 27.8995 17.0161 27.8481 16.2796 27.747L10.6121 31.7805C9.968 32.1512 9.74043 32.1107 10.0053 31.2027L11.1521 26.057C7.44929 24.0144 5 20.4748 5 16.4512C5 10.1275 11.0416 5 18.4987 5ZM26.096 16.2763L27.986 14.284C28.0951 14.1608 28.1559 13.9963 28.1557 13.8252C28.1555 13.6541 28.0943 13.4898 27.985 13.3668C27.8757 13.2439 27.7267 13.1719 27.5696 13.1661C27.4125 13.1602 27.2594 13.221 27.1426 13.3355L24.6637 15.9461V13.7888C24.6637 13.6137 24.5998 13.4457 24.486 13.3219C24.3722 13.198 24.2178 13.1284 24.0569 13.1284C23.8959 13.1284 23.7416 13.198 23.6277 13.3219C23.5139 13.4457 23.45 13.6137 23.45 13.7888V17.3661C23.4286 17.4684 23.4286 17.5745 23.45 17.6767V19.6899C23.45 19.8651 23.5139 20.033 23.6277 20.1569C23.7416 20.2807 23.8959 20.3503 24.0569 20.3503C24.2178 20.3503 24.3722 20.2807 24.486 20.1569C24.5998 20.033 24.6637 19.8651 24.6637 19.6899V17.7831L25.2127 17.2053L27.0487 20.0495C27.0946 20.1205 27.1528 20.181 27.2201 20.2275C27.2875 20.274 27.3625 20.3057 27.4411 20.3206C27.5197 20.3355 27.6001 20.3335 27.678 20.3146C27.7558 20.2957 27.8295 20.2603 27.8947 20.2104C27.96 20.1605 28.0156 20.0971 28.0583 20.0239C28.1011 19.9506 28.1301 19.8689 28.1439 19.7834C28.1576 19.6979 28.1557 19.6104 28.1383 19.5257C28.121 19.441 28.0884 19.3608 28.0426 19.2898L26.096 16.2763ZM22.2929 18.968H20.4157V13.8098C20.4085 13.6401 20.3415 13.4799 20.2286 13.3626C20.1157 13.2453 19.9656 13.1798 19.8095 13.1798C19.6534 13.1798 19.5033 13.2453 19.3904 13.3626C19.2775 13.4799 19.2105 13.6401 19.2033 13.8098V19.6284C19.2033 19.9921 19.4733 20.2887 19.8089 20.2887H22.2929C22.4538 20.2887 22.6082 20.2192 22.722 20.0953C22.8358 19.9715 22.8997 19.8035 22.8997 19.6284C22.8997 19.4533 22.8358 19.2853 22.722 19.1615C22.6082 19.0376 22.4538 18.968 22.2929 18.968ZM14.7624 17.4417L15.6573 15.0521L16.4776 17.4403L14.7624 17.4417ZM18.0063 18.123L18.0089 18.1006C18.0084 17.9343 17.9501 17.7743 17.8456 17.6529L16.5007 13.7356C16.4443 13.5489 16.337 13.3854 16.1929 13.2669C16.0489 13.1484 15.875 13.0806 15.6946 13.0725C15.513 13.0724 15.3356 13.1321 15.1858 13.2437C15.0359 13.3553 14.9206 13.5136 14.855 13.6979L12.7181 19.3989C12.6573 19.5611 12.6581 19.7429 12.7204 19.9044C12.7828 20.0659 12.9015 20.1938 13.0505 20.2601C13.1995 20.3263 13.3666 20.3254 13.515 20.2576C13.6634 20.1898 13.781 20.0606 13.8419 19.8984L14.2687 18.761H16.9301L17.3133 19.8802C17.3394 19.9639 17.3807 20.041 17.4347 20.107C17.4888 20.1729 17.5544 20.2264 17.6278 20.2643C17.7011 20.3022 17.7807 20.3236 17.8619 20.3274C17.943 20.3312 18.024 20.3172 18.1001 20.2863C18.1762 20.2554 18.2458 20.2082 18.3048 20.1475C18.3638 20.0868 18.411 20.0138 18.4436 19.9329C18.4762 19.852 18.4936 19.7648 18.4947 19.6764C18.4957 19.5881 18.4805 19.5004 18.4499 19.4185L18.0063 18.123ZM13.7339 13.8168C13.7342 13.7301 13.7188 13.6441 13.6885 13.564C13.6582 13.4838 13.6136 13.4109 13.5573 13.3495C13.501 13.2881 13.4342 13.2395 13.3605 13.2063C13.2869 13.1732 13.208 13.1562 13.1283 13.1564H8.95614C8.79519 13.1564 8.64084 13.226 8.52703 13.3498C8.41322 13.4737 8.34929 13.6416 8.34929 13.8168C8.34929 13.9919 8.41322 14.1599 8.52703 14.2837C8.64084 14.4075 8.79519 14.4771 8.95614 14.4771H10.4476V19.7039C10.4476 19.8791 10.5115 20.047 10.6253 20.1709C10.7391 20.2947 10.8935 20.3643 11.0544 20.3643C11.2154 20.3643 11.3697 20.2947 11.4835 20.1709C11.5973 20.047 11.6613 19.8791 11.6613 19.7039V14.4771H13.127C13.2068 14.4775 13.2859 14.4607 13.3596 14.4276C13.4334 14.3946 13.5005 14.3459 13.5569 14.2845C13.6133 14.2231 13.658 14.1502 13.6884 14.0699C13.7187 13.9896 13.7342 13.9036 13.7339 13.8168Z" fill="#22272D"/>
</svg>
